<?xml version="1.0" standalone="no"?>
<!DOCTYPE svg PUBLIC "-//W3C//DTD SVG 20010904//EN"
 "http://www.w3.org/TR/2001/REC-SVG-20010904/DTD/svg10.dtd">
<svg version="1.0" xmlns="http://www.w3.org/2000/svg"
 width="900.000000pt" height="900.000000pt" viewBox="0 0 900.000000 900.000000"
 preserveAspectRatio="xMidYMid meet">
<metadata>
Created by potrace 1.11, written by Peter Selinger 2001-2013
</metadata>
<g transform="translate(0.000000,900.000000) scale(0.100000,-0.100000)"
fill="#000000" stroke="none">
<path d="M0 4500 l0 -4500 4500 0 4500 0 0 4500 0 4500 -4500 0 -4500 0 0
-4500z m4820 3630 c12 -16 19 -30 16 -30 -2 0 -14 14 -26 30 -12 17 -19 30
-16 30 2 0 14 -13 26 -30z m41 -57 c13 -16 12 -17 -3 -4 -10 7 -18 15 -18 17
0 8 8 3 21 -13z m110 -155 c19 -34 2 -17 -30 30 -25 35 -26 40 -6 17 14 -16
30 -38 36 -47z m128 -178 c118 -162 657 -917 776 -1085 51 -71 237 -335 415
-585 420 -592 408 -575 610 -860 96 -135 268 -378 384 -540 115 -162 210 -302
210 -311 1 -17 -754 -839 -969 -1054 -73 -74 -62 -60 99 118 54 59 96 113 93
120 -2 7 -34 15 -78 19 -41 4 -93 14 -117 22 l-42 15 -63 -62 c-56 -57 -238
-248 -442 -467 -43 -47 -116 -123 -160 -170 -45 -47 -128 -134 -185 -195 -122
-129 -177 -185 -183 -185 -2 0 -4 17 -5 38 0 20 -7 120 -16 222 -16 192 -33
300 -48 300 -4 0 -8 11 -8 24 0 13 -7 29 -15 36 -11 9 -12 15 -5 20 11 7 -11
59 -38 88 -9 10 -10 17 -3 21 6 4 2 11 -9 19 -20 12 -36 1 -25 -18 3 -6 -1 -7
-10 -4 -13 5 -13 9 -3 23 24 32 42 41 83 41 34 0 45 5 64 31 13 17 20 34 16
37 -4 4 -109 7 -233 8 -369 1 -364 0 -357 24 6 20 -49 209 -64 220 -22 15 -75
136 -67 155 4 10 -1 15 -17 17 -12 0 -26 2 -32 3 -5 1 -86 5 -180 9 -93 4
-189 9 -211 12 -28 3 -45 0 -53 -9 -10 -13 -60 -139 -101 -257 -10 -30 -26
-73 -35 -94 l-16 -39 -187 9 c-103 5 -211 9 -241 9 l-53 0 6 40 c8 59 22 103
158 505 44 129 85 253 90 275 6 22 46 148 90 280 43 132 85 265 93 295 7 30
32 109 53 175 84 252 180 561 186 597 6 33 27 54 44 44 4 -2 138 -14 297 -26
168 -13 295 -27 302 -34 14 -12 50 -150 303 -1152 93 -369 190 -750 215 -847
39 -149 44 -179 33 -196 -9 -15 -9 -24 -2 -31 16 -16 272 -33 379 -25 147 10
178 23 60 24 -55 1 -127 5 -160 11 -33 5 -80 12 -105 15 -66 7 -104 17 -111
27 -3 5 -4 122 -2 261 4 283 9 307 71 333 45 19 57 18 190 -8 141 -27 132 -34
170 137 12 54 18 137 27 395 3 91 10 272 16 404 11 233 6 335 -11 291 -5 -11
-9 -77 -9 -147 -1 -70 -5 -129 -9 -132 -5 -3 -46 45 -93 107 -309 409 -501
661 -654 862 -96 127 -257 339 -358 472 -100 134 -186 243 -192 243 -5 0 -51
-37 -100 -83 -195 -177 -644 -580 -828 -742 -74 -66 -138 -127 -141 -135 -3
-8 -10 -175 -16 -370 -5 -195 -12 -416 -15 -490 -9 -222 -25 -651 -26 -705
l-2 -50 -7 50 c-5 28 -6 71 -3 98 6 52 -1 57 -50 35 -20 -10 -27 -20 -27 -40
0 -18 -5 -28 -15 -28 -11 0 -15 11 -15 40 0 33 3 40 19 40 17 0 19 5 14 38 -3
20 -9 39 -13 42 -4 3 -12 41 -18 85 -20 141 -23 155 -39 155 -11 0 -13 5 -8
18 19 44 18 62 -4 62 -32 0 -25 17 9 25 34 7 41 25 10 25 -11 0 -20 -5 -20
-11 0 -6 -16 -9 -37 -7 -26 2 -44 -3 -56 -14 -9 -10 -32 -18 -50 -18 -18 0
-38 -5 -45 -12 -9 -9 -15 -9 -24 0 -9 9 -8 12 8 12 18 1 18 1 2 14 -25 18 -23
24 10 28 22 2 28 8 30 36 2 19 -3 38 -12 48 -9 8 -16 27 -15 42 0 24 1 25 9 7
5 -11 9 -15 9 -8 1 6 4 19 8 29 4 12 3 15 -5 10 -8 -5 -12 0 -12 13 0 13 7 21
17 21 15 0 15 1 0 18 -23 25 -21 42 3 42 11 0 20 5 20 10 0 6 -9 10 -20 10
-10 0 -24 9 -30 20 -6 11 -25 28 -43 37 -30 16 -30 18 -9 21 18 3 22 10 22 43
0 21 -4 39 -10 39 -5 0 -10 8 -10 19 0 10 -7 24 -15 31 -23 19 -18 30 14 30
25 0 29 4 35 40 4 25 12 40 21 40 12 0 12 6 0 46 -16 52 -12 70 16 77 15 4 24
-4 39 -33 11 -22 20 -51 20 -65 0 -18 5 -25 20 -25 14 0 19 -6 17 -21 -3 -28
27 -48 50 -33 23 15 26 29 9 46 -8 8 -12 25 -9 40 3 14 -1 31 -9 39 -14 16
-46 72 -75 132 -10 22 -25 37 -35 37 -10 0 -18 7 -18 16 0 9 -10 24 -21 33
-17 14 -20 21 -11 37 5 10 8 32 5 47 -4 20 -1 27 11 27 29 0 17 18 -16 24 -57
10 -62 12 -72 29 -17 26 1 32 103 33 103 2 145 9 136 25 -4 5 -17 9 -31 9 -15
0 -24 6 -24 15 0 8 -8 15 -17 16 -14 0 -15 2 -3 6 8 3 19 11 23 17 6 7 7 4 3
-6 -9 -29 32 -22 46 7 9 20 8 41 -5 98 -19 81 -22 127 -7 127 13 0 13 59 -1
98 -6 17 -16 30 -22 29 -6 -1 -13 6 -15 16 -2 10 2 17 11 17 20 0 31 67 21
123 -4 23 -7 46 -6 50 4 16 -58 1 -83 -21 -35 -31 -46 -28 -12 4 16 14 36 27
45 29 9 1 16 7 15 13 -2 10 28 38 282 267 66 60 129 118 139 129 11 12 42 45
70 75 29 31 41 48 29 42 -17 -9 -28 -9 -44 -1 -11 7 -31 9 -43 6 -37 -9 -62
23 -82 108 l-12 48 48 47 c26 25 69 66 97 91 278 254 410 371 447 396 23 14
42 16 149 9 67 -4 145 -11 172 -15 48 -8 52 -7 100 30 28 22 61 51 75 65 33
36 50 31 87 -23 70 -102 81 -110 158 -117 39 -4 101 -10 140 -15 38 -5 72 -7
74 -4 8 8 -35 74 -157 244 -14 19 -18 28 -9 20 9 -8 57 -71 106 -140z m-1493
-653 c-2 -7 -5 -4 -5 6 -1 9 -6 17 -12 17 -5 0 -7 5 -3 11 9 15 28 -16 20 -34z
m-307 -909 c0 -13 -4 -32 -9 -43 -7 -15 -9 -10 -9 23 -1 23 4 42 9 42 6 0 10
-10 9 -22z m-144 -668 c18 -19 17 -21 -6 -41 -22 -19 -24 -19 -29 -3 -8 21 -1
64 10 64 4 0 15 -9 25 -20z m235 -1070 c0 -79 0 -80 -25 -80 -22 0 -24 3 -15
19 5 11 10 47 10 80 0 48 3 61 15 61 12 0 15 -16 15 -80z m4105 -306 c36 -23
216 -270 232 -318 25 -72 -18 -178 -95 -228 -44 -29 -75 -23 -120 25 -69 72
-201 260 -213 301 -19 70 15 152 89 209 40 31 72 34 107 11z m-262 -243 c15
-22 27 -43 27 -47 0 -4 -12 -20 -27 -36 l-26 -27 70 -93 c39 -51 101 -132 138
-181 l67 -87 -43 -48 c-53 -58 -55 -59 -65 -30 -4 13 -25 46 -48 75 -62 78
-73 92 -134 175 -31 43 -64 77 -73 78 -8 0 -25 -13 -37 -30 -25 -34 -42 -39
-42 -12 0 10 -7 28 -16 40 -15 22 -14 25 43 89 32 37 73 82 91 101 17 19 32
43 32 53 0 29 12 23 43 -20z m-3774 -46 c-12 -25 -26 -45 -31 -45 -4 0 -8 -5
-8 -11 0 -18 -48 -70 -55 -59 -3 5 -1 10 4 10 6 0 11 7 11 15 0 7 8 19 18 24
9 6 11 11 5 11 -7 0 -13 6 -13 13 0 12 14 25 49 47 13 7 13 11 0 26 -12 16
-12 17 3 12 10 -4 19 0 23 10 5 12 9 13 12 5 2 -7 -6 -33 -18 -58z m3570 -268
c42 -40 131 -125 199 -189 l123 -117 -47 -51 c-48 -52 -64 -60 -64 -35 0 15
-38 55 -52 55 -4 0 -15 -11 -24 -25 -16 -24 -15 -27 10 -66 27 -40 27 -41 10
-62 -63 -76 -101 -107 -88 -72 3 8 -23 63 -59 122 -118 197 -118 198 -116 270
2 52 -2 69 -19 93 -29 39 -28 51 8 85 17 16 30 37 30 47 0 10 3 18 7 18 4 0
41 -33 82 -73z m-3469 -101 c0 -3 -4 -8 -10 -11 -5 -3 -10 -1 -10 4 0 6 5 11
10 11 6 0 10 -2 10 -4z m-60 -66 c0 -5 -5 -10 -11 -10 -5 0 -7 5 -4 10 3 6 8
10 11 10 2 0 4 -4 4 -10z m3287 -77 c26 -34 91 -115 144 -180 53 -65 107 -134
122 -153 l26 -35 -42 -47 c-42 -48 -57 -58 -57 -37 0 7 -20 30 -44 53 l-44 41
4 90 c5 87 4 92 -26 139 -17 27 -56 79 -86 116 -29 37 -54 71 -54 75 0 11 0
10 57 -62z m-397 -180 c-35 -38 -68 -72 -73 -78 -6 -6 -6 -4 -1 7 11 19 123
138 131 138 4 0 -22 -30 -57 -67z m285 37 c3 -6 -1 -7 -9 -4 -18 7 -21 14 -7
14 6 0 13 -4 16 -10z m-1553 -78 c-6 -2 -8 -10 -5 -18 4 -10 -3 -14 -23 -14
l-28 0 22 -16 c25 -17 29 -34 7 -34 -10 0 -15 -10 -15 -27 -1 -35 -24 -80 -34
-64 -11 18 -46 13 -46 -6 -1 -17 -2 -16 -11 1 -9 14 -7 22 5 34 12 12 16 13
16 3 0 -11 3 -11 16 0 14 12 14 14 -3 20 -12 4 -25 -1 -39 -17 -12 -12 -25
-20 -28 -17 -10 11 -7 -12 4 -25 7 -8 7 -9 -1 -3 -6 5 -19 7 -28 4 -9 -3 4 14
27 36 24 23 48 41 53 41 6 0 8 4 4 9 -3 5 20 36 51 68 40 41 58 54 62 44 3 -8
0 -17 -6 -19z m-7 -102 c-3 -5 -11 -10 -16 -10 -6 0 -7 5 -4 10 3 6 11 10 16
10 6 0 7 -4 4 -10z m1415 -52 c0 -6 -6 -5 -15 2 -8 7 -15 14 -15 16 0 2 7 1
15 -2 8 -4 15 -11 15 -16z m380 -119 l29 -36 -46 -44 -45 -44 22 44 c26 52 23
70 -25 142 l-36 54 36 -40 c20 -22 50 -56 65 -76z m-410 -83 c32 -58 18 -41
-30 35 -22 35 -30 51 -16 35 13 -15 34 -47 46 -70z m321 -63 c13 -16 12 -17
-3 -4 -10 7 -18 15 -18 17 0 8 8 3 21 -13z m-170 -206 l-24 -22 19 27 c10 14
21 24 23 22 3 -3 -6 -15 -18 -27z m-43 -49 c-8 -12 -21 -24 -29 -26 -8 -3 -3
7 10 22 30 32 39 34 19 4z m-170 -58 c4 0 18 7 30 16 12 8 27 12 33 8 7 -4 7
1 -1 16 -20 37 -4 33 28 -7 l30 -39 -83 -89 c-57 -61 -84 -84 -85 -72 0 10
-32 57 -72 105 l-71 87 39 5 c21 3 44 2 51 -3 18 -13 35 2 29 27 -4 16 3 12
30 -17 19 -20 38 -37 42 -37z m-415 -12 c20 -25 34 -48 29 -51 -4 -2 0 -2 8 0
8 3 20 5 25 6 14 3 34 38 35 61 0 15 2 16 15 6 9 -7 25 -25 35 -40 l19 -27
-29 -34 c-16 -19 -29 -37 -30 -40 0 -3 14 -23 30 -44 17 -21 28 -40 26 -43 -8
-8 -56 35 -48 43 4 5 -1 5 -10 2 -9 -3 -19 -1 -21 6 -3 8 -10 5 -20 -8 -15
-20 -15 -20 -14 0 2 15 -9 22 -53 34 -59 16 -90 41 -90 75 0 17 -2 18 -10 6
-8 -13 -11 -11 -16 8 -4 12 -14 22 -23 22 -14 0 -14 2 -1 10 10 6 11 10 3 10
-7 0 -13 5 -13 11 0 6 18 9 48 8 43 -3 47 -1 50 20 2 13 7 19 11 15 4 -5 24
-30 44 -56z m-348 10 c-76 -81 -208 -213 -194 -193 8 10 40 46 72 80 31 33 60
70 63 83 4 12 12 22 18 22 7 0 23 11 36 25 13 14 28 25 34 25 5 0 -8 -19 -29
-42z m182 -163 c29 -30 53 -60 53 -66 0 -6 -19 10 -43 35 -23 25 -48 46 -55
46 -7 0 -11 4 -7 9 3 6 -3 14 -12 20 -13 8 -14 10 -4 11 8 0 39 -25 68 -55z
m472 -30 c19 -28 22 -38 12 -48 -10 -9 -11 -9 -6 4 4 10 -3 20 -20 29 -14 7
-25 22 -25 32 0 27 12 22 39 -17z"/>
<path d="M5600 6632 c0 -12 113 -167 129 -176 15 -10 14 69 -1 97 -14 26 -38
46 -56 47 -8 0 -27 9 -43 21 -16 11 -29 16 -29 11z"/>
<path d="M3323 6523 c-7 -2 -13 -11 -13 -19 0 -8 -8 -14 -17 -15 -12 0 -13 -2
-5 -6 7 -3 24 7 37 21 23 25 23 30 -2 19z"/>
<path d="M3320 6469 c0 -5 5 -7 10 -4 6 3 10 8 10 11 0 2 -4 4 -10 4 -5 0 -10
-5 -10 -11z"/>
<path d="M6735 5060 c-3 -5 -1 -10 4 -10 6 0 11 5 11 10 0 6 -2 10 -4 10 -3 0
-8 -4 -11 -10z"/>
<path d="M6633 4966 l-80 -75 -6 -118 c-3 -65 -3 -120 0 -123 2 -3 65 58 140
135 74 77 136 136 139 130 12 -28 170 -230 178 -228 6 1 17 20 26 42 8 22 21
46 27 52 6 6 9 18 6 26 -3 9 2 16 15 20 32 8 35 43 6 80 -14 18 -33 33 -42 33
-12 0 -14 2 -4 8 20 14 -125 72 -179 72 -20 0 -27 -4 -23 -14 4 -10 -5 -12
-38 -9 -71 6 -90 12 -84 28 3 8 4 15 2 15 -1 0 -39 -34 -83 -74z"/>
<path d="M4457 4744 c-15 -28 -119 -356 -114 -360 1 -1 64 -5 140 -9 119 -6
137 -5 137 8 0 37 -43 199 -56 212 -8 8 -20 29 -26 47 -6 18 -19 42 -28 53
-10 11 -22 34 -27 50 l-10 30 -16 -31z"/>
<path d="M6884 4037 c-174 -180 -170 -176 -150 -190 9 -7 53 -21 98 -32 l81
-19 17 21 c13 17 18 51 24 154 3 73 5 134 3 135 -2 2 -34 -29 -73 -69z"/>
<path d="M5995 3400 c-4 -6 3 -10 14 -10 25 0 27 6 6 13 -8 4 -17 2 -20 -3z"/>
<path d="M5312 3311 c-11 -7 -11 -9 2 -14 19 -7 46 1 46 14 0 11 -31 11 -48 0z"/>
<path d="M7387 4023 c-17 -16 -1 -44 100 -179 104 -139 125 -160 144 -148 19
12 7 48 -38 112 -142 201 -181 241 -206 215z"/>
<path d="M6971 3449 c9 -13 35 -57 59 -97 46 -79 61 -92 85 -72 26 22 16 43
-50 112 -67 70 -124 104 -94 57z"/>
<path d="M5982 2331 c2 -7 7 -12 11 -12 12 1 9 15 -3 20 -7 2 -11 -2 -8 -8z"/>
<path d="M5956 2292 c-2 -4 4 -13 15 -20 22 -14 25 -7 5 14 -8 8 -17 11 -20 6z"/>
</g>
</svg>
